<svg width="26" height="26" viewBox="0 0 26 26" fill="none" xmlns="http://www.w3.org/2000/svg">
<path d="M8.29011 6.87627L7.58301 6.16916L6.16879 7.58337L6.8759 8.29048L8.29011 6.87627ZM17.7092 19.1238C18.0998 19.5143 18.7329 19.5143 19.1234 19.1238C19.514 18.7333 19.514 18.1001 19.1234 17.7096L17.7092 19.1238ZM6.8759 8.29048L17.7092 19.1238L19.1234 17.7096L8.29011 6.87627L6.8759 8.29048Z" fill="black"/>
<path d="M19.4163 7.58337V6.58337H17.4163V7.58337H19.4163ZM18.4163 18.4167V19.4167C18.9686 19.4167 19.4163 18.969 19.4163 18.4167H18.4163ZM7.58301 17.4167H6.58301V19.4167H7.58301V17.4167ZM17.4163 7.58337V18.4167H19.4163V7.58337H17.4163ZM18.4163 17.4167H7.58301V19.4167H18.4163V17.4167Z" fill="black"/>
</svg>
